<svg width="128" height="128" viewBox="0 0 24 24" fill="none" xmlns="http://www.w3.org/2000/svg">
	<path d="M12 2C8.69 2 6 4.69 6 8V15C6 15.55 6.45 16 7 16C7.55 16 8 15.55 8 15V8C8 5.79 9.79 4 12 4C14.21 4 16 5.79 16 8V15C16 15.55 16.45 16 17 16C17.55 16 18 15.55 18 15V8C18 4.69 15.31 2 12 2Z" fill="#D4C4DD"/>
	<path d="M18 14V20C18 20.55 17.55 21 17 21C16.45 21 16 21.45 16 22C16 22.55 15.55 23 15 23C14.45 23 14 22.55 14 22C14 21.45 13.55 21 13 21C12.45 21 12 21.45 12 22C12 22.55 11.55 23 11 23C10.45 23 10 22.55 10 22C10 21.45 9.55 21 9 21C8.45 21 8 21.45 8 22C8 22.55 7.55 23 7 23C6.45 23 6 22.55 6 22C6 21.45 5.55 21 5 21C4.45 21 4 20.55 4 20V14C4 13.45 4.45 13 5 13C5.55 13 6 13.45 6 14V15C6 15.55 6.45 16 7 16C7.55 16 8 15.55 8 15V14C8 13.45 8.45 13 9 13C9.55 13 10 13.45 10 14V15C10 15.55 10.45 16 11 16C11.55 16 12 15.55 12 15V14C12 13.45 12.45 13 13 13C13.55 13 14 13.45 14 14V15C14 15.55 14.45 16 15 16C15.55 16 16 15.55 16 15V14C16 13.45 16.45 13 17 13C17.55 13 18 13.45 18 14Z" fill="#D4C4DD"/>
	<circle cx="9.5" cy="9" r="1.5" fill="#1a1a1a"/>
	<circle cx="14.5" cy="9" r="1.5" fill="#1a1a1a"/>
</svg>
